<mxfile host="app.diagrams.net" modified="2024-05-30T06:56:30.329Z" agent="Mozilla/5.0 (Windows NT 10.0; Win64; x64) AppleWebKit/537.36 (KHTML, like Gecko) Chrome/124.0.0.0 Safari/537.36" version="24.4.10" etag="w-d7tCbboQEylrNUk-ag" type="github">
  <diagram name="第 1 页" id="XhPcz7lEpD_imASRvgl6">
    <mxGraphModel>
      <root>
        <mxCell id="0" />
        <mxCell id="1" parent="0" />
      </root>
    </mxGraphModel>
  </diagram>
</mxfile>
